<?xml version="1.0" encoding="utf-8"?>
<!-- Generator: Adobe Illustrator 26.2.0, SVG Export Plug-In . SVG Version: 6.00 Build 0)  -->
<svg version="1.1" id="Layer_1" xmlns="http://www.w3.org/2000/svg" xmlns:xlink="http://www.w3.org/1999/xlink" x="0px" y="0px"
	 viewBox="0 0 10 10" style="enable-background:new 0 0 10 10;" xml:space="preserve">
<style type="text/css">
	.st0{fill:#FFEC00;}
	.st1{fill:#93C01F;}
	.st2{fill:#F29100;}
	.st3{fill:#009EE2;}
	.st4{fill:#E20613;}
</style>
<polygon points="8.77,1.26 8.74,1.23 8.12,0 1.88,0 1.26,1.23 1.23,1.26 0,1.88 0,8.12 1.23,8.74 1.26,8.77 1.88,10 8.12,10 
	8.74,8.77 8.77,8.74 10,8.12 10,1.88 "/>
<g>
	<polygon class="st0" points="1.4,3.68 3.69,3.68 3.69,1.4 3.63,1.4 1.4,1.4 1.4,3.63 	"/>
	<rect x="3.86" y="1.4" class="st0" width="2.28" height="2.28"/>
	<polygon class="st0" points="6.31,1.4 6.31,3.68 8.6,3.68 8.6,3.63 8.6,1.4 6.37,1.4 	"/>
	<rect x="1.4" y="3.86" class="st0" width="2.28" height="2.28"/>
	<rect x="3.86" y="3.86" class="st0" width="2.28" height="2.28"/>
	<rect x="6.31" y="3.86" class="st0" width="2.28" height="2.28"/>
	<polygon class="st0" points="3.69,8.6 3.69,6.32 1.4,6.32 1.4,6.37 1.4,8.6 3.63,8.6 	"/>
	<rect x="3.86" y="6.32" class="st0" width="2.28" height="2.28"/>
	<polygon class="st0" points="8.6,6.32 6.31,6.32 6.31,8.6 6.37,8.6 8.6,8.6 8.6,6.37 	"/>
	<polygon class="st1" points="8.77,3.72 9.3,3.98 9.83,4.25 9.83,1.98 8.77,1.46 8.77,3.68 	"/>
	<polygon class="st2" points="8.77,6.09 9.3,5.82 9.83,5.56 9.83,4.44 9.3,4.18 8.77,3.91 	"/>
	<polygon class="st1" points="8.77,6.32 8.77,8.54 9.83,8.02 9.83,5.75 9.3,6.02 8.77,6.28 	"/>
	<polygon class="st3" points="1.23,6.28 0.17,5.75 0.17,8.02 1.23,8.54 1.23,6.32 	"/>
	<polygon class="st1" points="0.17,4.44 0.17,5.56 1.23,6.09 1.23,3.91 	"/>
	<polygon class="st3" points="1.23,1.46 0.17,1.98 0.17,4.25 1.23,3.72 1.23,3.68 	"/>
	<polygon class="st4" points="6.28,8.77 6.02,9.3 5.75,9.83 8.02,9.83 8.54,8.77 6.31,8.77 	"/>
	<polygon class="st4" points="3.91,8.77 4.18,9.3 4.44,9.83 5.56,9.83 5.82,9.3 6.09,8.77 	"/>
	<polygon class="st4" points="3.69,8.77 1.46,8.77 1.98,9.83 4.25,9.83 3.98,9.3 3.72,8.77 	"/>
	<polygon class="st2" points="3.72,1.23 3.98,0.7 4.25,0.17 1.98,0.17 1.46,1.23 3.69,1.23 	"/>
	<polygon class="st3" points="6.09,1.23 5.82,0.7 5.56,0.17 4.44,0.17 4.18,0.7 3.91,1.23 	"/>
	<polygon class="st2" points="6.31,1.23 8.54,1.23 8.02,0.17 5.75,0.17 6.02,0.7 6.28,1.23 	"/>
</g>
</svg>
