<?xml version="1.0" encoding="utf-8"?>
<!-- Generator: Adobe Illustrator 26.2.1, SVG Export Plug-In . SVG Version: 6.00 Build 0)  -->
<svg version="1.1" id="Layer_1" xmlns="http://www.w3.org/2000/svg" xmlns:xlink="http://www.w3.org/1999/xlink" x="0px" y="0px"
	 viewBox="0 0 100 100" style="enable-background:new 0 0 100 100;" xml:space="preserve">
<style type="text/css">
	.st0{fill:#E20613;}
	.st1{fill:#9C9B9B;}
	.st2{fill:#FFEC00;}
	.st3{fill:#F29100;}
	.st4{fill:#FFFFFF;}
	.st5{fill:#93C01F;}
</style>
<g>
	<polygon points="96.9,8.1 38.1,0 3.1,22.9 10.3,83.1 70.9,100 94.3,64.9 	"/>
	<g>
		<polyline class="st0" points="9.4,65.2 11.4,82.3 28.8,87.1 27.4,69.7 9.4,65.2 		"/>
		<polyline class="st0" points="7.2,45.5 9.3,63.8 27.3,68.3 25.7,49.5 7.2,45.5 		"/>
		<polyline class="st1" points="4.7,24.3 7,44 25.6,48.1 23.9,27.8 4.7,24.3 		"/>
		<polyline class="st0" points="28.8,70 30.2,87.4 48.6,92.5 47.9,74.8 28.8,70 		"/>
		<polyline class="st0" points="27.2,49.9 28.7,68.6 47.8,73.4 47,54.2 27.2,49.9 		"/>
		<polyline class="st1" points="25.4,28.1 27.1,48.4 46.9,52.7 46,31.9 25.4,28.1 		"/>
		<polyline class="st0" points="49.4,75.1 50.1,92.9 69.7,98.4 69.7,80.2 49.4,75.1 		"/>
		<polyline class="st0" points="48.5,54.5 49.3,73.7 69.7,78.8 69.7,59.2 48.5,54.5 		"/>
		<polyline class="st1" points="47.6,32.2 48.5,53 69.7,57.6 69.7,36.3 47.6,32.2 		"/>
		<polyline class="st1" points="17.2,14.8 5.3,22.7 24.5,26.2 35.6,17.9 17.2,14.8 		"/>
		<polyline class="st1" points="28.5,7.3 18,14.2 36.4,17.3 46.2,10 28.5,7.3 		"/>
		<polyline class="st1" points="38.7,0.6 29.3,6.8 46.9,9.5 55.6,3 38.7,0.6 		"/>
		<polyline class="st1" points="37.1,18.1 26,26.4 46.5,30.2 56.7,21.4 37.1,18.1 		"/>
		<polyline class="st2" points="47.6,10.2 37.8,17.5 57.4,20.7 66.3,13 47.6,10.2 		"/>
		<polyline class="st1" points="56.9,3.2 48.3,9.7 67,12.5 74.9,5.6 56.9,3.2 		"/>
		<polyline class="st1" points="58.3,21.6 48.2,30.5 70.2,34.5 79.2,25.1 58.3,21.6 		"/>
		<polyline class="st3" points="67.8,13.2 59,21 79.9,24.5 87.7,16.3 67.8,13.2 		"/>
		<polyline class="st4" points="76.3,5.8 68.4,12.7 88.3,15.7 95.3,8.5 76.3,5.8 		"/>
		<polyline class="st1" points="80.4,26.5 71.5,36 71.4,57.3 80.1,46.9 80.4,26.5 		"/>
		<polyline class="st5" points="88.9,17.6 81.1,25.8 80.7,46.1 88.2,37 88.9,17.6 		"/>
		<polyline class="st3" points="96.3,9.7 89.4,17 88.8,36.3 95.5,28.3 96.3,9.7 		"/>
		<polyline class="st5" points="80,48.3 71.4,58.8 71.4,78.4 79.7,67.2 80,48.3 		"/>
		<polyline class="st5" points="88.2,38.4 80.6,47.6 80.3,66.4 87.6,56.5 88.2,38.4 		"/>
		<polyline class="st1" points="95.4,29.6 88.7,37.8 88.1,55.8 94.7,46.9 95.4,29.6 		"/>
		<polyline class="st5" points="79.7,68.6 71.4,79.9 71.4,98 79.4,86 79.7,68.6 		"/>
		<polyline class="st5" points="87.6,57.8 80.3,67.8 79.9,85.2 87,74.6 87.6,57.8 		"/>
		<polyline class="st1" points="94.6,48.2 88.1,57.1 87.5,73.9 93.9,64.4 94.6,48.2 		"/>
	</g>
</g>
</svg>
