<?xml version="1.0" encoding="utf-8"?>
<!-- Generator: Adobe Illustrator 26.2.1, SVG Export Plug-In . SVG Version: 6.00 Build 0)  -->
<svg version="1.1" id="Layer_1" xmlns="http://www.w3.org/2000/svg" xmlns:xlink="http://www.w3.org/1999/xlink" x="0px" y="0px"
	 viewBox="0 0 10 10" style="enable-background:new 0 0 10 10;" xml:space="preserve">
<style type="text/css">
	.st0{fill:#FFEC00;}
	.st1{fill:#575756;}
	.st2{fill:#9C9B9B;}
</style>
<polygon points="8.1,0 1.9,0 1.3,1.2 1.2,1.3 0,1.9 0,8.1 1.2,8.7 1.3,8.8 1.9,10 8.1,10 8.7,8.8 8.8,8.7 10,8.1 10,1.9 8.8,1.3 
	8.7,1.2 "/>
<g>
	<polygon class="st0" points="6.4,8.6 8.6,8.6 8.6,6.4 8.6,6.3 6.3,6.3 6.3,8.6 	"/>
	<rect x="6.3" y="3.9" class="st0" width="2.3" height="2.3"/>
	<polygon class="st0" points="8.6,3.6 8.6,1.4 6.4,1.4 6.3,1.4 6.3,3.7 8.6,3.7 	"/>
	<rect x="3.9" y="6.3" class="st1" width="2.3" height="2.3"/>
	<rect x="3.9" y="3.9" class="st0" width="2.3" height="2.3"/>
	<rect x="3.9" y="1.4" class="st1" width="2.3" height="2.3"/>
	<polygon class="st1" points="1.4,6.4 1.4,8.6 3.6,8.6 3.7,8.6 3.7,6.3 1.4,6.3 	"/>
	<rect x="1.4" y="3.9" class="st0" width="2.3" height="2.3"/>
	<polygon class="st1" points="3.6,1.4 1.4,1.4 1.4,3.6 1.4,3.7 3.7,3.7 3.7,1.4 	"/>
	<polygon class="st2" points="6.3,1.2 8.5,1.2 8,0.2 5.8,0.2 6,0.7 6.3,1.2 	"/>
	<polygon class="st0" points="6.1,1.2 5.8,0.7 5.6,0.2 4.4,0.2 4.2,0.7 3.9,1.2 	"/>
	<polygon class="st0" points="3.7,1.2 4,0.7 4.2,0.2 2,0.2 1.5,1.2 3.7,1.2 	"/>
	<polygon class="st0" points="3.7,8.8 1.5,8.8 2,9.8 4.2,9.8 3.7,8.8 	"/>
	<polygon class="st0" points="6.1,8.8 3.9,8.8 4.4,9.8 5.6,9.8 	"/>
	<polygon class="st2" points="6.3,8.8 6.3,8.8 5.8,9.8 8,9.8 8.5,8.8 	"/>
	<polygon class="st2" points="1.2,3.7 1.2,1.5 0.2,2 0.2,4.2 0.7,4 1.2,3.7 	"/>
	<polygon class="st2" points="1.2,3.9 0.7,4.2 0.2,4.4 0.2,5.6 0.7,5.8 1.2,6.1 	"/>
	<polygon class="st2" points="1.2,6.3 0.7,6 0.2,5.8 0.2,8 1.2,8.5 1.2,6.3 	"/>
	<polygon class="st2" points="8.8,6.3 8.8,8.5 9.8,8 9.8,5.8 9.3,6 8.8,6.3 	"/>
	<polygon class="st2" points="8.8,6.1 9.3,5.8 9.8,5.6 9.8,4.4 9.3,4.2 8.8,3.9 	"/>
	<polygon class="st2" points="8.8,3.7 9.3,4 9.8,4.2 9.8,2 8.8,1.5 8.8,3.7 	"/>
</g>
</svg>
